<svg xmlns="http://www.w3.org/2000/svg" width="995" height="1024" viewBox="0 0 995 1024" version="1.1"><path d="M 413.091 244.727 L 339.681 245.013 340.341 267.668 C 340.703 280.128, 341 363.165, 341 452.195 L 341 614.067 437.250 613.769 L 533.500 613.472 542 611.187 C 566.904 604.491, 591.402 592.372, 609 578.040 C 632.670 558.765, 647.758 538.410, 659.437 510 C 669.467 485.602, 671.873 473.884, 672.682 445.500 C 674.301 388.683, 663.916 347.597, 638.810 311.481 C 621.796 287.007, 590.418 262.705, 564.930 254.261 C 555.887 251.266, 552.326 250.417, 536.908 247.582 C 520.192 244.509, 512.795 244.338, 413.091 244.727 M 392.585 263.708 L 357.670 264.026 358.334 369.763 C 358.700 427.918, 358.999 502.613, 358.999 535.750 L 359 596 367 596 L 375 596 375 522.186 L 375 448.372 386.609 435.436 C 392.994 428.321, 398.552 422.275, 398.959 422 C 401.412 420.345, 402 416.030, 402 399.674 C 402 382.408, 401.975 382.210, 399.750 381.640 C 393.289 379.982, 388.056 370.870, 388.022 361.218 C 387.989 351.795, 391.548 344.866, 398.200 341.405 C 401.855 339.503, 412.375 339.610, 416.549 341.590 C 425.646 345.907, 430.133 360.588, 425.636 371.319 C 423.602 376.174, 419.282 380.768, 415.451 382.154 L 412 383.402 412 403.784 L 412 424.166 398.500 439.256 L 385 454.345 385 525.172 L 385 596 393.500 596 L 402 596 402 527.735 L 402 459.471 413.565 445.985 C 419.926 438.568, 431.176 425.457, 438.565 416.848 L 452 401.197 452 370.645 L 452 340.094 448.643 338.501 C 441.127 334.934, 438 328.903, 438 317.973 C 438 304.397, 444.463 297.011, 456.349 297.004 C 459.648 297.002, 463.669 297.698, 465.572 298.601 C 469.476 300.454, 474.540 307.577, 476.117 313.435 C 478.268 321.423, 472.726 335.183, 466.193 338.075 L 463.177 339.410 462.839 373.039 L 462.500 406.668 455.297 415.084 C 451.336 419.713, 439.973 432.930, 430.047 444.456 L 412 465.412 412 530.706 L 412 596 418 596 L 424 596 424 549.936 L 424 503.872 432.066 494.742 C 438.360 487.619, 439.991 485.161, 439.492 483.557 C 435.695 471.358, 440.451 457.216, 449.643 453.376 C 456.519 450.503, 466.520 452.492, 471.195 457.662 C 481.430 468.979, 476.997 490.387, 463.568 494.492 C 457.441 496.366, 454.266 496.387, 450.799 494.579 C 448.157 493.200, 447.993 493.293, 443.305 498.835 C 440.668 501.951, 437.721 505.372, 436.756 506.439 C 435.138 508.225, 435 511.812, 435 552.189 L 435 596 462.750 596.250 C 518.043 596.748, 528.725 595.917, 550.933 589.390 C 577.565 581.562, 603.056 564.420, 620.662 542.500 C 645.349 511.764, 658.398 472.599, 658.115 430.091 C 657.764 377.426, 636.793 328.498, 601.257 297.430 C 580.856 279.594, 560.726 270.327, 533 266.009 C 528.875 265.367, 524.375 264.586, 523 264.273 C 520.025 263.597, 441.820 263.258, 392.585 263.708 M 453.357 307.954 C 449.876 309.420, 448 313.039, 448 318.288 C 448 324.203, 449.142 326.505, 453.091 328.547 C 455.582 329.835, 456.753 329.907, 459.658 328.948 C 463.757 327.595, 466 323.401, 466 317.088 C 466 310.221, 459.361 305.425, 453.357 307.954 M 512.385 317.186 C 510.798 318.388, 509.342 319.484, 509.148 319.621 C 508.954 319.758, 509.454 320.810, 510.257 321.957 C 511.547 323.798, 511.868 323.864, 512.982 322.522 C 513.677 321.685, 514.640 321, 515.122 321 C 515.605 321, 516 326.400, 516 333 L 516 345 518.500 345 L 521 345 521 330 L 521 315 518.135 315 C 516.559 315, 513.972 315.984, 512.385 317.186 M 546.153 317.337 C 543.180 320.502, 541.461 330.285, 542.924 335.716 C 543.519 337.929, 544.977 340.973, 546.164 342.481 C 548.109 344.954, 548.799 345.178, 553.195 344.755 C 556.422 344.445, 558.543 343.647, 559.469 342.393 C 563.675 336.702, 563.559 323.006, 559.262 317.899 C 556.026 314.053, 549.501 313.774, 546.153 317.337 M 581.133 316.865 C 579.383 318.211, 578.944 319.248, 579.450 320.842 C 580.003 322.585, 580.492 322.807, 582.001 321.999 C 583.028 321.450, 584.123 321, 584.434 321 C 584.745 321, 585 326.400, 585 333 L 585 345 587.500 345 L 590 345 590 330 L 590 315 586.750 315.022 C 584.962 315.034, 582.435 315.864, 581.133 316.865 M 549.468 321.409 C 548.503 322.881, 547.856 326.171, 547.804 329.869 C 547.621 342.776, 555.645 345.222, 557.431 332.804 C 558.907 322.543, 553.652 315.023, 549.468 321.409 M 403.420 351.097 C 398.868 353.410, 396.763 360.617, 398.955 366.383 C 401.027 371.832, 409.892 374.217, 414.058 370.447 C 418.246 366.658, 418.358 356.914, 414.261 352.817 C 411.992 350.548, 406.284 349.642, 403.420 351.097 M 512.913 374.221 C 509.847 376.693, 508.602 380.508, 508.579 387.506 C 508.566 391.360, 509.144 395.934, 509.864 397.671 C 512.395 403.782, 521.048 404.494, 525.201 398.933 C 526.270 397.501, 527.358 393.930, 527.682 390.790 C 528.830 379.668, 525.942 374.035, 518.739 373.347 C 516.208 373.105, 513.861 373.457, 512.913 374.221 M 548.352 375.050 C 546.077 376.508, 545.347 377.612, 545.719 379.033 C 546.340 381.407, 546.894 381.463, 549.777 379.443 L 552 377.887 552 389.943 L 552 402 554.500 402 L 557 402 557 387.500 L 557 373 554.250 373.017 C 552.737 373.026, 550.084 373.941, 548.352 375.050 M 581.279 374.207 C 577.687 375.942, 575.608 382.895, 576.339 390.728 C 577.069 398.543, 579.437 401.710, 585.257 402.654 C 588.377 403.161, 589.332 402.822, 591.832 400.322 C 595.306 396.848, 596.513 391.260, 595.515 383.273 C 594.404 374.383, 588.588 370.679, 581.279 374.207 M 615.428 375.309 C 613.409 377.045, 612.915 378.156, 613.434 379.791 C 614.088 381.851, 614.251 381.881, 616.562 380.368 L 619 378.770 619 390.385 L 619 402 621.500 402 L 624 402 624 387.500 L 624 373 621.056 373 C 619.422 373, 616.917 374.028, 615.428 375.309 M 516.313 377.786 C 511.926 380.575, 512.127 396.684, 516.570 398.388 C 520.511 399.901, 523 395.560, 523 387.175 C 523 379.385, 520.132 375.357, 516.313 377.786 M 582.976 379.750 C 580.032 383.482, 580.472 393.916, 583.710 397.155 L 585.823 399.268 588.412 396.679 C 590.650 394.441, 591 393.237, 591 387.768 C 591 377.875, 587.340 374.218, 582.976 379.750 M 512.891 432.212 C 509.935 434.010, 509.144 436.353, 511.087 437.554 C 511.685 437.923, 512.675 437.725, 513.287 437.113 C 516.020 434.380, 516.496 436.162, 516.191 447.998 L 515.882 460 518.441 460 L 521 460 521 445.011 L 521 430.022 518.391 430.238 C 516.956 430.357, 514.481 431.245, 512.891 432.212 M 547.869 431.510 C 546.421 432.296, 544.927 433.741, 544.548 434.720 C 541.366 442.933, 542.490 454.667, 546.782 458.043 C 552.828 462.799, 560.498 459.015, 562.118 450.477 C 564.808 436.299, 557.343 426.362, 547.869 431.510 M 582.250 431.989 C 578.809 434.087, 578.517 434.689, 579.888 436.853 C 580.557 437.909, 581.214 437.956, 582.873 437.068 C 584.988 435.936, 585 436, 585 447.965 L 585 460 587.500 460 L 590 460 590 445 C 590 430.110, 589.983 430, 587.750 430.004 C 586.513 430.006, 584.038 430.899, 582.250 431.989 M 615 431.294 C 610.510 433.565, 608.203 441.198, 609.464 449.607 C 610.852 458.867, 619.308 463.080, 625.615 457.654 C 628.099 455.518, 628.382 454.552, 628.787 446.829 C 629.134 440.221, 628.865 437.640, 627.568 435.132 C 625.105 430.369, 619.945 428.793, 615 431.294 M 550 436 C 545.993 440.007, 547.913 456, 552.402 456 C 555.594 456, 557.412 452.008, 557.412 445 C 557.412 439.687, 556.986 437.642, 555.551 436.056 C 553.236 433.499, 552.509 433.491, 550 436 M 616.449 436.056 C 615.014 437.642, 614.588 439.687, 614.588 445 C 614.588 452.033, 616.407 456, 619.632 456 C 625.102 456, 626.314 437.844, 621.032 435.017 C 618.545 433.686, 618.607 433.672, 616.449 436.056 M 452.750 464.080 C 448.054 466.815, 446.691 475.146, 450.050 480.580 C 452.440 484.448, 454.841 485.440, 459.635 484.541 C 467.867 482.996, 469.627 468.082, 462.055 464.030 C 459.623 462.728, 455.029 462.753, 452.750 464.080 M 512.690 489.986 C 509.961 492.424, 509.564 493.486, 509.191 499.347 C 508.364 512.336, 510.777 517, 518.326 517 C 523.665 517, 526.731 514.143, 528.145 507.850 C 531.332 493.666, 521.408 482.196, 512.690 489.986 M 550.011 487.988 C 548.642 488.316, 546.468 490.141, 545.178 492.042 C 543.103 495.104, 542.873 496.436, 543.167 503.670 C 543.453 510.681, 543.844 512.206, 545.924 514.420 C 548.352 517.003, 553.534 517.884, 557.455 516.379 C 561.436 514.851, 563.745 504.903, 562.033 496.657 C 560.476 489.160, 556.645 486.397, 550.011 487.988 M 582.385 489.186 C 580.798 490.388, 579.377 491.449, 579.226 491.543 C 578.251 492.152, 580.525 495.006, 581.629 494.557 C 582.383 494.251, 583.675 493.727, 584.500 493.393 C 585.784 492.873, 586 494.528, 586 504.893 L 586 517 588.500 517 L 591 517 591 502 L 591 487 588.135 487 C 586.559 487, 583.972 487.984, 582.385 489.186 M 615.750 488.758 C 612.861 490.549, 612.472 491.618, 613.890 493.857 C 614.490 494.803, 614.957 494.878, 615.434 494.107 C 615.810 493.498, 616.766 493, 617.559 493 C 618.734 493, 619 495.218, 619 505 L 619 517 621.500 517 L 624 517 624 502 L 624 487 621.250 487.027 C 619.737 487.041, 617.263 487.820, 615.750 488.758 M 515.557 494.223 C 513.598 497.019, 513.426 508.832, 515.306 511.404 C 517.452 514.339, 521.287 513.100, 522.743 509 C 524.055 505.304, 523.597 496.985, 521.907 493.827 C 520.573 491.334, 517.443 491.529, 515.557 494.223 M 549.557 494.223 C 547.753 496.798, 547.405 508.020, 549.035 511.066 C 549.606 512.133, 551.120 513, 552.413 513 C 556.245 513, 557.500 510.409, 557.500 502.500 C 557.500 494.905, 556.237 492, 552.934 492 C 551.933 492, 550.413 493, 549.557 494.223 M 512.712 546.391 C 509.568 549.304, 508.571 554.068, 509.273 562.813 C 509.720 568.380, 510.228 569.799, 512.458 571.718 C 515.782 574.577, 520.854 574.689, 524.298 571.980 C 530.070 567.440, 530.069 550.559, 524.298 546.020 C 520.793 543.263, 515.919 543.419, 512.712 546.391 M 548.206 545.048 C 543.871 546.787, 541.322 557.202, 543.238 565.341 C 544.482 570.624, 548.062 574, 552.421 574 C 557.563 574, 560.676 570.877, 562.029 564.361 C 564.948 550.301, 558.291 541, 548.206 545.048 M 581.271 545.976 C 579.137 547.277, 578.241 548.463, 578.628 549.473 C 579.316 551.265, 580.410 551.386, 583.066 549.965 C 584.915 548.975, 585 549.347, 585 558.443 L 585 567.957 587.500 566.818 C 589.943 565.705, 590 565.431, 590 554.839 L 590 544 587.250 544.004 C 585.737 544.006, 583.047 544.893, 581.271 545.976 M 515.557 550.223 C 514.532 551.685, 514 554.686, 514 559 C 514 569.322, 518.052 573.242, 522.011 566.750 C 527.287 558.097, 521.113 542.289, 515.557 550.223 M 549.557 550.223 C 546.070 555.200, 548.261 570, 552.484 570 C 555.231 570, 558 564.945, 558 559.930 C 558 550.018, 553.402 544.732, 549.557 550.223 M 266.947 665.794 L 260 666.088 259.986 697.294 C 259.979 714.457, 259.701 729.513, 259.370 730.750 L 258.767 733 275.846 733 C 294.521 733, 300.511 731.716, 307.870 726.135 C 322.579 714.981, 322.629 685.963, 307.959 673.619 C 301.059 667.813, 290.224 664.614, 279.442 665.199 C 276.391 665.364, 270.768 665.632, 266.947 665.794 M 348 698.445 L 348 731.928 371.001 732.214 L 394.002 732.500 394.001 727.750 L 394 723 377 723 L 360 723 360 713 L 360 703 375 703 L 390 703 390 698.500 L 390 694 375 694 L 360 694 360 684.500 L 360 675 376.555 675 L 393.110 675 392.805 670.250 L 392.500 665.500 370.250 665.231 L 348 664.962 348 698.445 M 434.574 666.429 C 425.970 669.620, 421.357 677.565, 422.632 687 C 423.801 695.653, 428.561 699.433, 445.196 704.919 C 453.828 707.766, 457 710.243, 457 714.138 C 457 718.386, 455.521 720.623, 451.872 721.895 C 445.397 724.152, 436.751 722.762, 429.739 718.335 C 427.580 716.973, 425.292 716.058, 424.653 716.303 C 424.015 716.548, 422.891 718.412, 422.156 720.445 C 420.971 723.721, 421.016 724.360, 422.546 726.050 C 425.993 729.860, 434.774 732.355, 445 732.430 C 453.352 732.492, 455.039 732.198, 458.961 730 C 472.722 722.289, 471.899 703.667, 457.500 696.941 C 455.300 695.914, 449.860 693.935, 445.412 692.544 C 436.443 689.740, 433.667 687.468, 433.667 682.932 C 433.667 676.269, 442.282 672.880, 452.471 675.535 C 455.541 676.334, 459.159 677.713, 460.511 678.599 C 462.882 680.153, 463.006 680.115, 463.977 677.561 C 466.657 670.511, 466.567 670.178, 461.356 667.861 C 455.066 665.064, 440.373 664.279, 434.574 666.429 M 693.011 665.700 C 693.021 666.462, 697.783 676.062, 710.325 700.605 L 716 711.710 716 721.855 L 716 732 721.750 732.002 L 727.500 732.004 727.183 722.576 L 726.866 713.147 738.933 690.087 C 745.570 677.404, 751 666.773, 751 666.463 C 751 666.154, 748.446 666.035, 745.324 666.200 C 739.820 666.491, 739.586 666.621, 737.574 670.504 C 726.698 691.496, 722.624 698.997, 722.108 698.977 C 721.773 698.965, 717.638 691.427, 712.918 682.227 L 704.335 665.500 698.668 665.200 C 695.550 665.035, 693.005 665.260, 693.011 665.700 M 491 671 L 491 676 501 676 L 511 676 511 704 L 511 732 517 732 L 523 732 523 704 L 523 676 533 676 L 543 676 543 671 L 543 666 517 666 L 491 666 491 671 M 567 699 L 567 732 573 732 L 579 732 579 699 L 579 666 573 666 L 567 666 567 699 M 612.999 699.250 L 612.997 732.500 618.480 732.159 L 623.962 731.817 624.231 709.874 L 624.500 687.930 632.579 699.215 C 637.022 705.422, 644.141 715.337, 648.399 721.250 L 656.142 732 661.071 732 L 666 732 666 699 L 666 666 660.500 666 L 655 666 655 688.640 L 655 711.279 652.597 707.739 C 651.276 705.791, 644.502 696.253, 637.544 686.542 C 630.586 676.831, 624.644 668.236, 624.340 667.443 C 623.952 666.433, 622.169 666, 618.393 666 L 613 666 612.999 699.250 M 271 699.631 L 271 723.262 281.250 722.802 C 292.527 722.296, 297.213 720.714, 301.785 715.869 C 305.518 711.915, 306.839 707.689, 306.902 699.500 C 306.967 691.090, 304.899 685.875, 299.684 681.296 C 295.015 677.196, 290.555 676.012, 279.750 676.006 L 271 676 271 699.631 M 500.232 769.250 C 499.209 771.587, 496.849 777.409, 494.988 782.187 C 493.128 786.965, 491.330 790.704, 490.993 790.496 C 490.656 790.288, 488.214 784.691, 485.565 778.059 C 481.026 766.694, 480.588 766, 477.968 766 L 475.189 766 479.152 776.250 C 481.332 781.888, 484.266 789.538, 485.673 793.250 C 487.735 798.690, 488.646 799.997, 490.366 799.985 C 491.540 799.976, 492.969 799.639, 493.541 799.235 C 494.342 798.670, 501.201 781.554, 506.760 766.250 C 507.048 765.457, 506.277 765, 504.654 765 C 502.600 765, 501.725 765.841, 500.232 769.250 M 523.667 765.667 C 523.300 766.033, 523 773.683, 523 782.667 L 523 799 526 799 L 529 799 529 782 L 529 765 526.667 765 C 525.383 765, 524.033 765.300, 523.667 765.667 M 594.984 765.216 C 594.975 765.372, 594.862 773.038, 594.734 782.251 L 594.500 799.001 605.750 799.001 L 617 799 617 796.500 C 617 794.029, 616.900 794, 608.500 794 L 600 794 600 789.500 L 600 785 607.500 785 C 614.833 785, 615 784.944, 615 782.500 C 615 780.054, 614.837 780, 607.445 780 L 599.890 780 600.195 775.250 L 600.500 770.500 608.472 770.371 C 616.157 770.247, 616.445 770.157, 616.446 767.871 C 616.448 765.541, 616.262 765.495, 605.724 765.216 C 599.826 765.060, 594.993 765.060, 594.984 765.216 M 357.359 768.046 C 352.841 770.941, 351.470 774.795, 353.354 779.305 C 354.696 782.516, 355.532 783.074, 361.806 784.942 C 369.567 787.254, 371.985 789.205, 370.344 791.834 C 368.492 794.802, 362.619 795.583, 357.959 793.482 C 354.442 791.895, 353.717 791.835, 352.939 793.064 C 350.838 796.385, 353.081 798.152, 361.185 799.558 C 368.665 800.857, 376 796.025, 376 789.799 C 376 785.134, 374.383 783.282, 368.760 781.508 C 359.023 778.438, 358 777.874, 358 775.579 C 358 774.380, 358.540 772.860, 359.200 772.200 C 360.705 770.695, 368.445 770.633, 371.193 772.103 C 372.776 772.950, 373.453 772.892, 374.112 771.853 C 375.724 769.309, 374.999 768.094, 371.250 767.053 C 365.573 765.476, 360.843 765.814, 357.359 768.046 M 394 783 L 394 800 405.500 800 L 417 800 417 797.500 C 417 795.029, 416.900 795, 408.500 795 L 400 795 400 790 L 400 785 407.500 785 C 414.833 785, 415 784.944, 415 782.500 C 415 780.056, 414.833 780, 407.500 780 L 400 780 400 775.500 L 400 771 408.500 771 C 416.900 771, 417 770.971, 417 768.500 L 417 766 405.500 766 L 394 766 394 783 M 435 783 L 435 800 438 800 C 440.933 800, 441 799.889, 441 795 L 441 790 445.500 790 C 447.975 790, 450 790.459, 450 791.020 C 450 791.581, 451.131 793.831, 452.513 796.020 C 454.518 799.196, 455.622 800, 457.982 800 L 460.940 800 457.521 794.324 L 454.102 788.648 457.051 785.289 C 459.986 781.946, 460.390 780.744, 460.164 776.019 C 460.018 772.970, 457.120 768.918, 453.904 767.265 C 452.577 766.583, 447.803 766.023, 443.250 766.015 L 435 766 435 783 M 556.207 767.604 C 551.627 769.951, 548 776.477, 548 782.370 C 548 795.494, 558.948 803.213, 570.387 798.153 C 575.041 796.094, 576.103 794.160, 573.682 792.151 C 572.716 791.350, 571.847 791.415, 570.432 792.394 C 566.585 795.056, 564.068 795.211, 559.627 793.061 C 555.046 790.844, 553 787.743, 553 783.018 C 553 776.710, 556.053 772.992, 562.830 771.049 C 565.171 770.377, 566.789 770.618, 569.612 772.057 C 573.109 773.840, 573.392 773.849, 574.627 772.223 C 576.385 769.910, 576.342 769.694, 573.804 768.110 C 570.286 765.913, 560.080 765.620, 556.207 767.604 M 638.674 768.982 C 635.842 771.468, 635 772.960, 635 775.493 C 635 780.285, 637.622 782.722, 645.500 785.252 C 651.394 787.145, 652.555 787.886, 652.845 789.944 C 653.513 794.679, 646.152 796.681, 639.921 793.459 C 636.577 791.730, 635.481 792.051, 634.715 794.984 C 634.266 796.698, 634.984 797.230, 639.523 798.550 C 644.083 799.875, 645.632 799.912, 650.179 798.800 C 654.796 797.672, 655.740 797.009, 657.315 793.787 C 659.016 790.306, 659.027 789.858, 657.488 786.615 C 655.830 783.122, 652.269 781.057, 645.319 779.558 C 640.955 778.616, 639.409 776.592, 640.771 773.603 C 642.139 770.601, 646.153 769.841, 651.746 771.524 C 655.913 772.778, 656.163 772.737, 656.957 770.671 C 658.172 767.509, 656.936 766.800, 649.245 766.250 C 642.591 765.774, 642.218 765.870, 638.674 768.982 M 441 777.500 L 441 785 445.077 785 C 448.250 785, 449.802 784.352, 452.077 782.077 C 455.024 779.130, 455.518 777.513, 454.379 774.545 C 453.488 772.222, 448.682 770, 444.550 770 L 441 770 441 777.500" stroke="none" fill="#f9c35f" fill-rule="evenodd"/><path d="M 0 512.001 L 0 1024.002 497.750 1023.751 L 995.500 1023.500 995.751 511.750 L 996.002 0 498.001 0 L 0 0 0 512.001 M 0.496 512.500 C 0.496 794.100, 0.610 909.151, 0.750 768.168 C 0.890 627.186, 0.890 396.786, 0.750 256.168 C 0.610 115.551, 0.496 230.900, 0.496 512.500 M 413.091 244.727 L 339.681 245.013 340.341 267.668 C 340.703 280.128, 341 363.165, 341 452.195 L 341 614.067 437.250 613.769 L 533.500 613.472 542 611.187 C 566.904 604.491, 591.402 592.372, 609 578.040 C 632.670 558.765, 647.758 538.410, 659.437 510 C 669.467 485.602, 671.873 473.884, 672.682 445.500 C 674.301 388.683, 663.916 347.597, 638.810 311.481 C 621.796 287.007, 590.418 262.705, 564.930 254.261 C 555.887 251.266, 552.326 250.417, 536.908 247.582 C 520.192 244.509, 512.795 244.338, 413.091 244.727 M 392.585 263.708 L 357.670 264.026 358.334 369.763 C 358.700 427.918, 358.999 502.613, 358.999 535.750 L 359 596 367 596 L 375 596 375 522.186 L 375 448.372 386.609 435.436 C 392.994 428.321, 398.552 422.275, 398.959 422 C 401.412 420.345, 402 416.030, 402 399.674 C 402 382.408, 401.975 382.210, 399.750 381.640 C 393.289 379.982, 388.056 370.870, 388.022 361.218 C 387.989 351.795, 391.548 344.866, 398.200 341.405 C 401.855 339.503, 412.375 339.610, 416.549 341.590 C 425.646 345.907, 430.133 360.588, 425.636 371.319 C 423.602 376.174, 419.282 380.768, 415.451 382.154 L 412 383.402 412 403.784 L 412 424.166 398.500 439.256 L 385 454.345 385 525.172 L 385 596 393.500 596 L 402 596 402 527.735 L 402 459.471 413.565 445.985 C 419.926 438.568, 431.176 425.457, 438.565 416.848 L 452 401.197 452 370.645 L 452 340.094 448.643 338.501 C 441.127 334.934, 438 328.903, 438 317.973 C 438 304.397, 444.463 297.011, 456.349 297.004 C 459.648 297.002, 463.669 297.698, 465.572 298.601 C 469.476 300.454, 474.540 307.577, 476.117 313.435 C 478.268 321.423, 472.726 335.183, 466.193 338.075 L 463.177 339.410 462.839 373.039 L 462.500 406.668 455.297 415.084 C 451.336 419.713, 439.973 432.930, 430.047 444.456 L 412 465.412 412 530.706 L 412 596 418 596 L 424 596 424 549.936 L 424 503.872 432.066 494.742 C 438.360 487.619, 439.991 485.161, 439.492 483.557 C 435.695 471.358, 440.451 457.216, 449.643 453.376 C 456.519 450.503, 466.520 452.492, 471.195 457.662 C 481.430 468.979, 476.997 490.387, 463.568 494.492 C 457.441 496.366, 454.266 496.387, 450.799 494.579 C 448.157 493.200, 447.993 493.293, 443.305 498.835 C 440.668 501.951, 437.721 505.372, 436.756 506.439 C 435.138 508.225, 435 511.812, 435 552.189 L 435 596 462.750 596.250 C 518.043 596.748, 528.725 595.917, 550.933 589.390 C 577.565 581.562, 603.056 564.420, 620.662 542.500 C 645.349 511.764, 658.398 472.599, 658.115 430.091 C 657.764 377.426, 636.793 328.498, 601.257 297.430 C 580.856 279.594, 560.726 270.327, 533 266.009 C 528.875 265.367, 524.375 264.586, 523 264.273 C 520.025 263.597, 441.820 263.258, 392.585 263.708 M 453.357 307.954 C 449.876 309.420, 448 313.039, 448 318.288 C 448 324.203, 449.142 326.505, 453.091 328.547 C 455.582 329.835, 456.753 329.907, 459.658 328.948 C 463.757 327.595, 466 323.401, 466 317.088 C 466 310.221, 459.361 305.425, 453.357 307.954 M 512.385 317.186 C 510.798 318.388, 509.342 319.484, 509.148 319.621 C 508.954 319.758, 509.454 320.810, 510.257 321.957 C 511.547 323.798, 511.868 323.864, 512.982 322.522 C 513.677 321.685, 514.640 321, 515.122 321 C 515.605 321, 516 326.400, 516 333 L 516 345 518.500 345 L 521 345 521 330 L 521 315 518.135 315 C 516.559 315, 513.972 315.984, 512.385 317.186 M 546.153 317.337 C 543.180 320.502, 541.461 330.285, 542.924 335.716 C 543.519 337.929, 544.977 340.973, 546.164 342.481 C 548.109 344.954, 548.799 345.178, 553.195 344.755 C 556.422 344.445, 558.543 343.647, 559.469 342.393 C 563.675 336.702, 563.559 323.006, 559.262 317.899 C 556.026 314.053, 549.501 313.774, 546.153 317.337 M 581.133 316.865 C 579.383 318.211, 578.944 319.248, 579.450 320.842 C 580.003 322.585, 580.492 322.807, 582.001 321.999 C 583.028 321.450, 584.123 321, 584.434 321 C 584.745 321, 585 326.400, 585 333 L 585 345 587.500 345 L 590 345 590 330 L 590 315 586.750 315.022 C 584.962 315.034, 582.435 315.864, 581.133 316.865 M 549.468 321.409 C 548.503 322.881, 547.856 326.171, 547.804 329.869 C 547.621 342.776, 555.645 345.222, 557.431 332.804 C 558.907 322.543, 553.652 315.023, 549.468 321.409 M 403.420 351.097 C 398.868 353.410, 396.763 360.617, 398.955 366.383 C 401.027 371.832, 409.892 374.217, 414.058 370.447 C 418.246 366.658, 418.358 356.914, 414.261 352.817 C 411.992 350.548, 406.284 349.642, 403.420 351.097 M 512.913 374.221 C 509.847 376.693, 508.602 380.508, 508.579 387.506 C 508.566 391.360, 509.144 395.934, 509.864 397.671 C 512.395 403.782, 521.048 404.494, 525.201 398.933 C 526.270 397.501, 527.358 393.930, 527.682 390.790 C 528.830 379.668, 525.942 374.035, 518.739 373.347 C 516.208 373.105, 513.861 373.457, 512.913 374.221 M 548.352 375.050 C 546.077 376.508, 545.347 377.612, 545.719 379.033 C 546.340 381.407, 546.894 381.463, 549.777 379.443 L 552 377.887 552 389.943 L 552 402 554.500 402 L 557 402 557 387.500 L 557 373 554.250 373.017 C 552.737 373.026, 550.084 373.941, 548.352 375.050 M 581.279 374.207 C 577.687 375.942, 575.608 382.895, 576.339 390.728 C 577.069 398.543, 579.437 401.710, 585.257 402.654 C 588.377 403.161, 589.332 402.822, 591.832 400.322 C 595.306 396.848, 596.513 391.260, 595.515 383.273 C 594.404 374.383, 588.588 370.679, 581.279 374.207 M 615.428 375.309 C 613.409 377.045, 612.915 378.156, 613.434 379.791 C 614.088 381.851, 614.251 381.881, 616.562 380.368 L 619 378.770 619 390.385 L 619 402 621.500 402 L 624 402 624 387.500 L 624 373 621.056 373 C 619.422 373, 616.917 374.028, 615.428 375.309 M 516.313 377.786 C 511.926 380.575, 512.127 396.684, 516.570 398.388 C 520.511 399.901, 523 395.560, 523 387.175 C 523 379.385, 520.132 375.357, 516.313 377.786 M 582.976 379.750 C 580.032 383.482, 580.472 393.916, 583.710 397.155 L 585.823 399.268 588.412 396.679 C 590.650 394.441, 591 393.237, 591 387.768 C 591 377.875, 587.340 374.218, 582.976 379.750 M 512.891 432.212 C 509.935 434.010, 509.144 436.353, 511.087 437.554 C 511.685 437.923, 512.675 437.725, 513.287 437.113 C 516.020 434.380, 516.496 436.162, 516.191 447.998 L 515.882 460 518.441 460 L 521 460 521 445.011 L 521 430.022 518.391 430.238 C 516.956 430.357, 514.481 431.245, 512.891 432.212 M 547.869 431.510 C 546.421 432.296, 544.927 433.741, 544.548 434.720 C 541.366 442.933, 542.490 454.667, 546.782 458.043 C 552.828 462.799, 560.498 459.015, 562.118 450.477 C 564.808 436.299, 557.343 426.362, 547.869 431.510 M 582.250 431.989 C 578.809 434.087, 578.517 434.689, 579.888 436.853 C 580.557 437.909, 581.214 437.956, 582.873 437.068 C 584.988 435.936, 585 436, 585 447.965 L 585 460 587.500 460 L 590 460 590 445 C 590 430.110, 589.983 430, 587.750 430.004 C 586.513 430.006, 584.038 430.899, 582.250 431.989 M 615 431.294 C 610.510 433.565, 608.203 441.198, 609.464 449.607 C 610.852 458.867, 619.308 463.080, 625.615 457.654 C 628.099 455.518, 628.382 454.552, 628.787 446.829 C 629.134 440.221, 628.865 437.640, 627.568 435.132 C 625.105 430.369, 619.945 428.793, 615 431.294 M 550 436 C 545.993 440.007, 547.913 456, 552.402 456 C 555.594 456, 557.412 452.008, 557.412 445 C 557.412 439.687, 556.986 437.642, 555.551 436.056 C 553.236 433.499, 552.509 433.491, 550 436 M 616.449 436.056 C 615.014 437.642, 614.588 439.687, 614.588 445 C 614.588 452.033, 616.407 456, 619.632 456 C 625.102 456, 626.314 437.844, 621.032 435.017 C 618.545 433.686, 618.607 433.672, 616.449 436.056 M 452.750 464.080 C 448.054 466.815, 446.691 475.146, 450.050 480.580 C 452.440 484.448, 454.841 485.440, 459.635 484.541 C 467.867 482.996, 469.627 468.082, 462.055 464.030 C 459.623 462.728, 455.029 462.753, 452.750 464.080 M 512.690 489.986 C 509.961 492.424, 509.564 493.486, 509.191 499.347 C 508.364 512.336, 510.777 517, 518.326 517 C 523.665 517, 526.731 514.143, 528.145 507.850 C 531.332 493.666, 521.408 482.196, 512.690 489.986 M 550.011 487.988 C 548.642 488.316, 546.468 490.141, 545.178 492.042 C 543.103 495.104, 542.873 496.436, 543.167 503.670 C 543.453 510.681, 543.844 512.206, 545.924 514.420 C 548.352 517.003, 553.534 517.884, 557.455 516.379 C 561.436 514.851, 563.745 504.903, 562.033 496.657 C 560.476 489.160, 556.645 486.397, 550.011 487.988 M 582.385 489.186 C 580.798 490.388, 579.377 491.449, 579.226 491.543 C 578.251 492.152, 580.525 495.006, 581.629 494.557 C 582.383 494.251, 583.675 493.727, 584.500 493.393 C 585.784 492.873, 586 494.528, 586 504.893 L 586 517 588.500 517 L 591 517 591 502 L 591 487 588.135 487 C 586.559 487, 583.972 487.984, 582.385 489.186 M 615.750 488.758 C 612.861 490.549, 612.472 491.618, 613.890 493.857 C 614.490 494.803, 614.957 494.878, 615.434 494.107 C 615.810 493.498, 616.766 493, 617.559 493 C 618.734 493, 619 495.218, 619 505 L 619 517 621.500 517 L 624 517 624 502 L 624 487 621.250 487.027 C 619.737 487.041, 617.263 487.820, 615.750 488.758 M 515.557 494.223 C 513.598 497.019, 513.426 508.832, 515.306 511.404 C 517.452 514.339, 521.287 513.100, 522.743 509 C 524.055 505.304, 523.597 496.985, 521.907 493.827 C 520.573 491.334, 517.443 491.529, 515.557 494.223 M 549.557 494.223 C 547.753 496.798, 547.405 508.020, 549.035 511.066 C 549.606 512.133, 551.120 513, 552.413 513 C 556.245 513, 557.500 510.409, 557.500 502.500 C 557.500 494.905, 556.237 492, 552.934 492 C 551.933 492, 550.413 493, 549.557 494.223 M 512.712 546.391 C 509.568 549.304, 508.571 554.068, 509.273 562.813 C 509.720 568.380, 510.228 569.799, 512.458 571.718 C 515.782 574.577, 520.854 574.689, 524.298 571.980 C 530.070 567.440, 530.069 550.559, 524.298 546.020 C 520.793 543.263, 515.919 543.419, 512.712 546.391 M 548.206 545.048 C 543.871 546.787, 541.322 557.202, 543.238 565.341 C 544.482 570.624, 548.062 574, 552.421 574 C 557.563 574, 560.676 570.877, 562.029 564.361 C 564.948 550.301, 558.291 541, 548.206 545.048 M 581.271 545.976 C 579.137 547.277, 578.241 548.463, 578.628 549.473 C 579.316 551.265, 580.410 551.386, 583.066 549.965 C 584.915 548.975, 585 549.347, 585 558.443 L 585 567.957 587.500 566.818 C 589.943 565.705, 590 565.431, 590 554.839 L 590 544 587.250 544.004 C 585.737 544.006, 583.047 544.893, 581.271 545.976 M 515.557 550.223 C 514.532 551.685, 514 554.686, 514 559 C 514 569.322, 518.052 573.242, 522.011 566.750 C 527.287 558.097, 521.113 542.289, 515.557 550.223 M 549.557 550.223 C 546.070 555.200, 548.261 570, 552.484 570 C 555.231 570, 558 564.945, 558 559.930 C 558 550.018, 553.402 544.732, 549.557 550.223 M 266.947 665.794 L 260 666.088 259.986 697.294 C 259.979 714.457, 259.701 729.513, 259.370 730.750 L 258.767 733 275.846 733 C 294.521 733, 300.511 731.716, 307.870 726.135 C 322.579 714.981, 322.629 685.963, 307.959 673.619 C 301.059 667.813, 290.224 664.614, 279.442 665.199 C 276.391 665.364, 270.768 665.632, 266.947 665.794 M 348 698.445 L 348 731.928 371.001 732.214 L 394.002 732.500 394.001 727.750 L 394 723 377 723 L 360 723 360 713 L 360 703 375 703 L 390 703 390 698.500 L 390 694 375 694 L 360 694 360 684.500 L 360 675 376.555 675 L 393.110 675 392.805 670.250 L 392.500 665.500 370.250 665.231 L 348 664.962 348 698.445 M 434.574 666.429 C 425.970 669.620, 421.357 677.565, 422.632 687 C 423.801 695.653, 428.561 699.433, 445.196 704.919 C 453.828 707.766, 457 710.243, 457 714.138 C 457 718.386, 455.521 720.623, 451.872 721.895 C 445.397 724.152, 436.751 722.762, 429.739 718.335 C 427.580 716.973, 425.292 716.058, 424.653 716.303 C 424.015 716.548, 422.891 718.412, 422.156 720.445 C 420.971 723.721, 421.016 724.360, 422.546 726.050 C 425.993 729.860, 434.774 732.355, 445 732.430 C 453.352 732.492, 455.039 732.198, 458.961 730 C 472.722 722.289, 471.899 703.667, 457.500 696.941 C 455.300 695.914, 449.860 693.935, 445.412 692.544 C 436.443 689.740, 433.667 687.468, 433.667 682.932 C 433.667 676.269, 442.282 672.880, 452.471 675.535 C 455.541 676.334, 459.159 677.713, 460.511 678.599 C 462.882 680.153, 463.006 680.115, 463.977 677.561 C 466.657 670.511, 466.567 670.178, 461.356 667.861 C 455.066 665.064, 440.373 664.279, 434.574 666.429 M 693.011 665.700 C 693.021 666.462, 697.783 676.062, 710.325 700.605 L 716 711.710 716 721.855 L 716 732 721.750 732.002 L 727.500 732.004 727.183 722.576 L 726.866 713.147 738.933 690.087 C 745.570 677.404, 751 666.773, 751 666.463 C 751 666.154, 748.446 666.035, 745.324 666.200 C 739.820 666.491, 739.586 666.621, 737.574 670.504 C 726.698 691.496, 722.624 698.997, 722.108 698.977 C 721.773 698.965, 717.638 691.427, 712.918 682.227 L 704.335 665.500 698.668 665.200 C 695.550 665.035, 693.005 665.260, 693.011 665.700 M 491 671 L 491 676 501 676 L 511 676 511 704 L 511 732 517 732 L 523 732 523 704 L 523 676 533 676 L 543 676 543 671 L 543 666 517 666 L 491 666 491 671 M 567 699 L 567 732 573 732 L 579 732 579 699 L 579 666 573 666 L 567 666 567 699 M 612.999 699.250 L 612.997 732.500 618.480 732.159 L 623.962 731.817 624.231 709.874 L 624.500 687.930 632.579 699.215 C 637.022 705.422, 644.141 715.337, 648.399 721.250 L 656.142 732 661.071 732 L 666 732 666 699 L 666 666 660.500 666 L 655 666 655 688.640 L 655 711.279 652.597 707.739 C 651.276 705.791, 644.502 696.253, 637.544 686.542 C 630.586 676.831, 624.644 668.236, 624.340 667.443 C 623.952 666.433, 622.169 666, 618.393 666 L 613 666 612.999 699.250 M 271 699.631 L 271 723.262 281.250 722.802 C 292.527 722.296, 297.213 720.714, 301.785 715.869 C 305.518 711.915, 306.839 707.689, 306.902 699.500 C 306.967 691.090, 304.899 685.875, 299.684 681.296 C 295.015 677.196, 290.555 676.012, 279.750 676.006 L 271 676 271 699.631 M 500.232 769.250 C 499.209 771.587, 496.849 777.409, 494.988 782.187 C 493.128 786.965, 491.330 790.704, 490.993 790.496 C 490.656 790.288, 488.214 784.691, 485.565 778.059 C 481.026 766.694, 480.588 766, 477.968 766 L 475.189 766 479.152 776.250 C 481.332 781.888, 484.266 789.538, 485.673 793.250 C 487.735 798.690, 488.646 799.997, 490.366 799.985 C 491.540 799.976, 492.969 799.639, 493.541 799.235 C 494.342 798.670, 501.201 781.554, 506.760 766.250 C 507.048 765.457, 506.277 765, 504.654 765 C 502.600 765, 501.725 765.841, 500.232 769.250 M 523.667 765.667 C 523.300 766.033, 523 773.683, 523 782.667 L 523 799 526 799 L 529 799 529 782 L 529 765 526.667 765 C 525.383 765, 524.033 765.300, 523.667 765.667 M 594.984 765.216 C 594.975 765.372, 594.862 773.038, 594.734 782.251 L 594.500 799.001 605.750 799.001 L 617 799 617 796.500 C 617 794.029, 616.900 794, 608.500 794 L 600 794 600 789.500 L 600 785 607.500 785 C 614.833 785, 615 784.944, 615 782.500 C 615 780.054, 614.837 780, 607.445 780 L 599.890 780 600.195 775.250 L 600.500 770.500 608.472 770.371 C 616.157 770.247, 616.445 770.157, 616.446 767.871 C 616.448 765.541, 616.262 765.495, 605.724 765.216 C 599.826 765.060, 594.993 765.060, 594.984 765.216 M 357.359 768.046 C 352.841 770.941, 351.470 774.795, 353.354 779.305 C 354.696 782.516, 355.532 783.074, 361.806 784.942 C 369.567 787.254, 371.985 789.205, 370.344 791.834 C 368.492 794.802, 362.619 795.583, 357.959 793.482 C 354.442 791.895, 353.717 791.835, 352.939 793.064 C 350.838 796.385, 353.081 798.152, 361.185 799.558 C 368.665 800.857, 376 796.025, 376 789.799 C 376 785.134, 374.383 783.282, 368.760 781.508 C 359.023 778.438, 358 777.874, 358 775.579 C 358 774.380, 358.540 772.860, 359.200 772.200 C 360.705 770.695, 368.445 770.633, 371.193 772.103 C 372.776 772.950, 373.453 772.892, 374.112 771.853 C 375.724 769.309, 374.999 768.094, 371.250 767.053 C 365.573 765.476, 360.843 765.814, 357.359 768.046 M 394 783 L 394 800 405.500 800 L 417 800 417 797.500 C 417 795.029, 416.900 795, 408.500 795 L 400 795 400 790 L 400 785 407.500 785 C 414.833 785, 415 784.944, 415 782.500 C 415 780.056, 414.833 780, 407.500 780 L 400 780 400 775.500 L 400 771 408.500 771 C 416.900 771, 417 770.971, 417 768.500 L 417 766 405.500 766 L 394 766 394 783 M 435 783 L 435 800 438 800 C 440.933 800, 441 799.889, 441 795 L 441 790 445.500 790 C 447.975 790, 450 790.459, 450 791.020 C 450 791.581, 451.131 793.831, 452.513 796.020 C 454.518 799.196, 455.622 800, 457.982 800 L 460.940 800 457.521 794.324 L 454.102 788.648 457.051 785.289 C 459.986 781.946, 460.390 780.744, 460.164 776.019 C 460.018 772.970, 457.120 768.918, 453.904 767.265 C 452.577 766.583, 447.803 766.023, 443.250 766.015 L 435 766 435 783 M 556.207 767.604 C 551.627 769.951, 548 776.477, 548 782.370 C 548 795.494, 558.948 803.213, 570.387 798.153 C 575.041 796.094, 576.103 794.160, 573.682 792.151 C 572.716 791.350, 571.847 791.415, 570.432 792.394 C 566.585 795.056, 564.068 795.211, 559.627 793.061 C 555.046 790.844, 553 787.743, 553 783.018 C 553 776.710, 556.053 772.992, 562.830 771.049 C 565.171 770.377, 566.789 770.618, 569.612 772.057 C 573.109 773.840, 573.392 773.849, 574.627 772.223 C 576.385 769.910, 576.342 769.694, 573.804 768.110 C 570.286 765.913, 560.080 765.620, 556.207 767.604 M 638.674 768.982 C 635.842 771.468, 635 772.960, 635 775.493 C 635 780.285, 637.622 782.722, 645.500 785.252 C 651.394 787.145, 652.555 787.886, 652.845 789.944 C 653.513 794.679, 646.152 796.681, 639.921 793.459 C 636.577 791.730, 635.481 792.051, 634.715 794.984 C 634.266 796.698, 634.984 797.230, 639.523 798.550 C 644.083 799.875, 645.632 799.912, 650.179 798.800 C 654.796 797.672, 655.740 797.009, 657.315 793.787 C 659.016 790.306, 659.027 789.858, 657.488 786.615 C 655.830 783.122, 652.269 781.057, 645.319 779.558 C 640.955 778.616, 639.409 776.592, 640.771 773.603 C 642.139 770.601, 646.153 769.841, 651.746 771.524 C 655.913 772.778, 656.163 772.737, 656.957 770.671 C 658.172 767.509, 656.936 766.800, 649.245 766.250 C 642.591 765.774, 642.218 765.870, 638.674 768.982 M 441 777.500 L 441 785 445.077 785 C 448.250 785, 449.802 784.352, 452.077 782.077 C 455.024 779.130, 455.518 777.513, 454.379 774.545 C 453.488 772.222, 448.682 770, 444.550 770 L 441 770 441 777.500" stroke="none" fill="#040b1b" fill-rule="evenodd"/></svg>